<?xml version="1.0" encoding="utf-8"?><svg xmlns="http://www.w3.org/2000/svg" xmlns:xlink="http://www.w3.org/1999/xlink" width="2131" height="1520" preserveAspectRatio="xMidYMid" viewBox="0 0 2131 1520" style="z-index:1;margin-right:-2px;display:block;background-repeat-y:initial;background-repeat-x:initial;animation-play-state:paused" ><g transform="translate(1065.5,760) scale(1,1) translate(-1065.5,-760)" style="transform:matrix(1, 0, 0, 1, 0, 0);animation-play-state:paused" ><linearGradient id="lg-0.5161542862297102" x1="0" x2="1" y1="0" y2="0" style="animation-play-state:paused" ><stop stop-color="#0051a2" offset="0" style="animation-play-state:paused" ></stop>

  
<stop stop-color="#1b75be" offset="1" style="animation-play-state:paused" ></stop></linearGradient>
<path d="M 0 0 L 0 1081.63 Q 118.389 871.905 236.778 837.847 T 473.556 762.274 T 710.333 635.491 T 947.111 522.354 T 1183.89 577.336 T 1420.67 456.324 T 1657.44 195.79 T 1894.22 202.111 T 2131 133.704 L 2131 0 Z" fill="url(#lg-0.5161542862297102)" opacity="0.4" style="opacity:0.4;animation-play-state:paused" ></path>
<path d="M 0 0 L 0 1088.79 Q 118.389 910.113 236.778 877.065 T 473.556 726.164 T 710.333 579.88 T 947.111 440.397 T 1183.89 473.646 T 1420.67 145.665 T 1657.44 117.105 T 1894.22 -5.54992 T 2131 -116.717 L 2131 0 Z" fill="url(#lg-0.5161542862297102)" opacity="0.4" style="opacity:0.4;animation-play-state:paused" ></path>
<path d="M 0 0 L 0 1117.61 Q 118.389 1023.57 236.778 1002.86 T 473.556 731.46 T 710.333 631.198 T 947.111 576.136 T 1183.89 344.792 T 1420.67 247.304 T 1657.44 213.693 T 1894.22 -16.0198 T 2131 -36.0141 L 2131 0 Z" fill="url(#lg-0.5161542862297102)" opacity="0.4" style="opacity:0.4;animation-play-state:paused" ></path></g></svg>